<?xml version="1.0" encoding="utf-8"?>
<!-- Generator: Adobe Illustrator 26.0.0, SVG Export Plug-In . SVG Version: 6.00 Build 0)  -->
<svg version="1.1"
	 id="svg5" inkscape:version="1.2.1 (9c6d41e410, 2022-07-14)" xmlns:inkscape="http://www.inkscape.org/namespaces/inkscape" xmlns:sodipodi="http://sodipodi.sourceforge.net/DTD/sodipodi-0.dtd" xmlns:svg="http://www.w3.org/2000/svg"
	 xmlns="http://www.w3.org/2000/svg" xmlns:xlink="http://www.w3.org/1999/xlink" x="0px" y="0px" viewBox="0 0 300 300"
	 style="enable-background:new 0 0 300 300;" xml:space="preserve">
<style type="text/css">
	.st0{fill:#454E89;stroke:#BF3942;stroke-width:20.4525;stroke-linejoin:round;stroke-miterlimit:15.1181;}
	.st1{fill:#BDC2E3;stroke:#BDC2E3;stroke-width:24.5585;stroke-linejoin:round;stroke-miterlimit:15.1181;}
	.st2{fill:#E54B5C;stroke:#E54B5C;stroke-width:5.7736;stroke-linejoin:round;}
	.st3{fill:#FE5292;}
	.st4{clip-path:url(#SVGID_00000072967457906757802630000007707534524627659683_);}
	.st5{clip-path:url(#SVGID_00000183234854905629372260000010012261204697462664_);}
	.st6{fill:#EC7985;}
	.st7{font-family:'AdobeSongStd-Light-GBpc-EUC-H';}
	.st8{font-size:12px;}
</style>
<sodipodi:namedview  bordercolor="#000000" borderopacity="0.25" id="namedview7" inkscape:current-layer="layer1" inkscape:cx="377.24147" inkscape:cy="94.752309" inkscape:deskcolor="#d1d1d1" inkscape:document-units="mm" inkscape:pagecheckerboard="0" inkscape:pageopacity="0.0" inkscape:showpageshadow="2" inkscape:window-height="1017" inkscape:window-maximized="1" inkscape:window-width="1920" inkscape:window-x="-8" inkscape:window-y="-8" inkscape:zoom="1.4142136" pagecolor="#ffffff" showgrid="false">
	</sodipodi:namedview>
<g id="layer1" inkscape:groupmode="layer" inkscape:label="鍦栧堡 1">
	<rect id="rect1259" x="22.9" y="10.2" class="st0" width="255.9" height="232.5"/>
	<rect id="rect2347" x="144.5" y="166.2" class="st1" width="12" height="45.1"/>
	<g id="g6286" transform="matrix(1.1646919,0,0,1.1549532,-6.3945767,-5.8846706)">
		<rect id="rect2078" x="16.4" y="153.9" class="st2" width="235.7" height="99.9"/>
		<rect id="rect2746" x="5.5" y="135.9" class="st3" width="257.6" height="25.6"/>
	</g>
	<g id="g7681" transform="matrix(0.77976728,0,0,0.77976728,44.693904,49.607303)">
		<g id="g7591">
			<g>
				<defs>
					<rect id="SVGID_1_" x="206.3" y="217.2" width="99.6" height="111.7"/>
				</defs>
				<clipPath id="SVGID_00000159444265644890888800000001085792633655204799_">
					<use xlink:href="#SVGID_1_"  style="overflow:visible;"/>
				</clipPath>
				<g id="g7589" style="clip-path:url(#SVGID_00000159444265644890888800000001085792633655204799_);">
					<g id="g7587">
						<g>
							<defs>
								<path id="SVGID_00000034783520257273256240000012991530559554958744_" d="M300.8,208.4c-9.6-9.4-25.4-9.4-35.2-0.3l0,0
									l-39.6,38.2c-12.8,12.2-12.8,32.2,0,44.4c12.8,12.2,33.9,12.2,46.7,0l11.5-10.9c1.6-1.6,1.6-3.9,0-5.5
									c-1.6-1.3-4.4-1.3-5.7,0l-11.5,10.9c-9.8,9.4-25.7,9.4-35.2,0c-9.8-9.4-9.8-24.4,0-33.8l39.9-37.9l0,0
									c6.6-6,17.2-6,23.8,0.3c6.6,6.2,6.6,16.4,0.3,22.6l-40.2,37.9c-3.6,3.4-9,3.4-12.6,0c-3.6-3.4-3.6-8.6,0-12l11.5-10.9
									c1.6-1.6,1.6-3.9,0-5.5c-1.6-1.6-4.1-1.6-5.7,0L237.1,257c-6.6,6.2-6.6,16.6,0,22.9s17.2,6.2,24,0L301,242
									C310.6,232.6,310.6,217.8,300.8,208.4z"/>
							</defs>
							<clipPath id="SVGID_00000153685080310385395260000011817524924296004281_">
								<use xlink:href="#SVGID_00000034783520257273256240000012991530559554958744_"  style="overflow:visible;"/>
							</clipPath>
							<g id="g7585" style="clip-path:url(#SVGID_00000153685080310385395260000011817524924296004281_);">
								<path id="path7583" sodipodi:nodetypes="ccc" class="st6" d="M311.7,287.4c-49.8,72.5-95.6,3.6-113.6,13.8
									C155.6,34.3,469.4,297,311.7,287.4z"/>
							</g>
						</g>
					</g>
					<text transform="matrix(1.2824 0 0 1.2824 7.7853 247.6014)" class="st7 st8">NTBE</text>
				</g>
			</g>
		</g>
	</g>
	
		<image style="display:none;overflow:visible;enable-background:new    ;" width="434" height="434" id="image17" xlink:href="BB94E775.png"  transform="matrix(0.6912 0 0 0.6912 0 0)">
	</image>
</g>
</svg>
